Coordinates
version=1
nRows=8
nColumns=40
inDegrees=yes

Units are S.I. units (second, meters, Newtons, ...)
Angles are in degrees.

endheader
time	pelvis_tilt	pelvis_list	pelvis_rotation	pelvis_tx	pelvis_ty	pelvis_tz	hip_flexion_r	hip_adduction_r	hip_rotation_r	knee_angle_r	knee_angle_r_beta	ankle_angle_r	subtalar_angle_r	mtp_angle_r	hip_flexion_l	hip_adduction_l	hip_rotation_l	knee_angle_l	knee_angle_l_beta	ankle_angle_l	subtalar_angle_l	mtp_angle_l	lumbar_extension	lumbar_bending	lumbar_rotation	arm_flex_r	arm_add_r	arm_rot_r	elbow_flex_r	pro_sup_r	wrist_flex_r	wrist_dev_r	arm_flex_l	arm_add_l	arm_rot_l	elbow_flex_l	pro_sup_l	wrist_flex_l	wrist_dev_l
      0.34000000	     -7.59878171	      3.51052702	     -5.60108812	     -0.47112665	      0.95901813	      1.02704257	     27.82121530	    -11.58628918	    -12.04483741	    -55.36252979	     -0.96625843	      0.38302129	    -16.22913458	     16.88517590	      9.90025984	     -6.21367704	     13.91074649	    -13.01649516	     -0.22718070	      5.27257737	      6.53194421	     -1.33833989	      3.85348184	     -4.23726714	     -3.95755246	     -4.24715863	    -11.00573235	     -8.20446136	     33.65670098	     89.95437384	      0.00000000	      0.00000000	      1.66740553	     11.39224094	     15.63486946	     18.06711751	     89.95437384	      0.00000000	      0.00000000
      0.35000000	     -7.64123883	      3.12444365	     -4.86373512	     -0.45896041	      0.95855479	      1.02652908	     28.84834116	    -11.37159878	    -12.75174588	    -53.49425972	     -0.93365096	      0.80688218	    -15.73549784	     16.34073329	      8.90502793	     -5.99838976	     13.16328989	    -12.68004829	     -0.22130859	      5.73331402	      6.17959828	     -1.60628613	      3.61906180	     -3.68983439	     -4.81416921	     -4.45771061	    -10.97896434	     -7.63398982	     31.63218049	     89.95437384	      0.00000000	      0.00000000	      2.72181350	     10.95469393	     13.94407154	     19.90202633	     89.95437384	      0.00000000	      0.00000000
      0.36000000	     -7.53198962	      2.77853726	     -4.15922904	     -0.44661504	      0.95803760	      1.02622308	     29.60931010	    -11.19870715	    -13.37682850	    -51.36093688	     -0.89641746	      1.18075627	    -15.19955182	     15.89306081	      7.77648369	     -5.80114646	     12.54985585	    -12.44023131	     -0.21712300	      6.03253283	      5.95546335	     -2.33635030	      3.24253472	     -3.21623067	     -5.53674376	     -4.70481838	    -10.86800114	     -7.38710343	     29.65021534	     89.95437384	      0.00000000	      0.00000000	      3.69429435	     10.69901369	     11.58821933	     21.95200173	     89.95437384	      0.00000000	      0.00000000
      0.37000000	     -7.51989221	      2.46177197	     -3.40446353	     -0.43443561	      0.95705779	      1.02600353	     30.40164394	    -11.07379859	    -14.01336770	    -48.99270591	     -0.85508403	      1.45739216	    -14.60440589	     15.57103729	      6.83381094	     -5.60021955	     11.85288717	    -12.31939527	     -0.21501401	      6.58945882	      5.75128167	     -2.75540945	      2.96946339	     -2.78731869	     -6.37353314	     -4.88333056	    -10.79611732	     -6.99667037	     27.65533419	     89.95437384	      0.00000000	      0.00000000	      4.64800569	     10.45520229	      9.83377015	     24.05205645	     89.95437384	      0.00000000	      0.00000000
      0.38000000	     -7.60699988	      2.25339686	     -2.86248790	     -0.42217653	      0.95567101	      1.02603308	     31.30912511	    -10.93792700	    -14.26753385	    -46.43107591	     -0.81037515	      1.54586874	    -13.82827238	     15.32066681	      5.92411185	     -5.47691236	     11.31969496	    -12.04400016	     -0.21020746	      7.14179893	      5.51985298	     -3.01125482	      2.85832680	     -2.44247045	     -6.99841702	     -5.05478750	    -10.74594163	     -6.69323303	     25.68919369	     89.95437384	      0.00000000	      0.00000000	      5.52708941	     10.24197400	      8.21131199	     26.16110901	     89.95437384	      0.00000000	      0.00000000
      0.39000000	     -7.10602210	      1.96967781	     -2.07174570	     -0.40949766	      0.95494693	      1.02594466	     31.26304735	    -10.98516325	    -15.09641819	    -43.51236798	     -0.75943409	      1.75632834	    -12.97445617	     15.05347990	      4.33375380	     -5.29273001	     10.69876486	    -11.73716683	     -0.20485221	      7.59710858	      5.47875278	     -3.65553077	      2.06137799	     -2.07697279	     -7.72831994	     -5.36817289	    -10.62785180	     -6.92997245	     24.15049704	     89.95437384	      0.00000000	      0.00000000	      6.45741490	     10.36577946	      5.41348501	     28.52456299	     89.95437384	      0.00000000	      0.00000000
      0.40000000	     -7.15389172	      1.89414235	     -1.59708807	     -0.39720594	      0.95312851	      1.02629537	     31.94330852	    -10.94606080	    -15.11391400	    -40.49878031	     -0.70683706	      1.67408689	    -11.89724035	     14.86479583	      3.39697985	     -5.23683161	     10.33715085	    -11.50170321	     -0.20074259	      8.10766344	      5.19029957	     -3.95072181	      1.92640287	     -1.90997264	     -8.29042542	     -5.54812401	    -10.60452749	     -6.66971744	     22.44391941	     89.95437384	      0.00000000	      0.00000000	      7.23785676	     10.36428019	      3.89048231	     30.82233653	     89.95437384	      0.00000000	      0.00000000
      0.41000000	     -6.50180412	      1.54849565	     -1.02350456	     -0.38402706	      0.95219703	      1.02699099	     31.47623095	    -10.77794962	    -15.72961929	    -37.08749239	     -0.64729885	      1.51511173	    -10.68786892	     13.21398321	      1.63960961	     -4.76506559	     10.58069404	    -11.19891615	     -0.19545796	      7.59553073	      4.40645888	     -9.04469692	      1.03327699	     -1.49023233	     -8.76832395	     -5.93886512	    -10.49082116	     -7.17210455	     21.16942261	     89.95437384	      0.00000000	      0.00000000	      8.12087619	     10.65929395	      1.30461562	     33.26541113	     89.95437384	      0.00000000	      0.00000000
